<?xml version="1.0" encoding="UTF-8"?>
<svg width="126px" height="365px" viewBox="0 0 126 365" version="1.1" xmlns="http://www.w3.org/2000/svg" xmlns:xlink="http://www.w3.org/1999/xlink">
    <!-- Generator: Sketch 51 (57462) - http://www.bohemiancoding.com/sketch -->
    <title>wine_bottle_red_question</title>
    <desc>Created with Sketch.</desc>
    <defs></defs>
    <g id="Page-1" stroke="none" stroke-width="1" fill="none" fill-rule="evenodd">
        <g id="Artboard" transform="translate(-577.000000, -501.000000)">
            <g id="wine_bottle_red_question" transform="translate(595.000000, 514.000000)">
                <path d="M25.3267606,83.0212383 L25.3267606,-4 L63.9139437,-4 L63.9139437,83.0204716 C64.1749736,83.3326052 64.6920334,83.6791382 65.4385187,83.9379856 C84.9917054,90.7202228 98.0759155,106.527103 98.0759155,124.561 L98.0759155,342.401 L-8.83267606,342.401 L-8.83267606,124.561 C-8.83267606,106.526534 4.25112264,90.7187152 23.804259,83.9377062 C24.5495732,83.6792649 25.0660965,83.3330349 25.3267606,83.0212383 Z" id="Shape" stroke="#019899" stroke-width="18" fill="#6B1D37" fill-rule="nonzero" stroke-linecap="round" stroke-linejoin="round"></path>
                <rect id="Rectangle-Copy-2" fill="#019899" x="26.6197183" y="0" width="38.028169" height="35"></rect>
                <path d="M40.872,177.4 C41.8106714,176.013326 43.175991,174.488008 44.968,172.824 C46.2053395,171.671994 47.1226637,170.701337 47.72,169.912 C48.3173363,169.122663 48.616,168.280004 48.616,167.384 C48.616,166.14666 48.0933386,165.15467 47.048,164.408 C46.0026614,163.66133 44.6480083,163.288 42.984,163.288 C41.2773248,163.288 39.7306736,163.693329 38.344,164.504 C36.9573264,165.314671 35.8373376,166.445326 34.984,167.896 L25.448,162.776 C27.1973421,159.789318 29.671984,157.464008 32.872,155.8 C36.072016,154.135992 39.9333107,153.304 44.456,153.304 C49.5333587,153.304 53.6186512,154.359989 56.712,156.472 C59.8053488,158.584011 61.352,161.538648 61.352,165.336 C61.352,167.085342 61.0533363,168.631993 60.456,169.976 C59.8586637,171.320007 59.1440042,172.450662 58.312,173.368 C57.4799958,174.285338 56.4026733,175.319994 55.08,176.472 C53.6293261,177.70934 52.5626701,178.765329 51.88,179.64 C51.1973299,180.514671 50.856,181.527994 50.856,182.68 L39.464,182.68 C39.464,180.546656 39.9333286,178.786674 40.872,177.4 Z M39.976,197.624 C38.6106598,196.32266 37.928,194.733343 37.928,192.856 C37.928,190.93599 38.5999933,189.35734 39.944,188.12 C41.2880067,186.88266 43.026656,186.264 45.16,186.264 C47.293344,186.264 49.0426598,186.88266 50.408,188.12 C51.7733402,189.35734 52.456,190.93599 52.456,192.856 C52.456,194.733343 51.7733402,196.32266 50.408,197.624 C49.0426598,198.92534 47.293344,199.576 45.16,199.576 C43.0693229,199.576 41.3413402,198.92534 39.976,197.624 Z" id="?-copy-2" stroke="#FFFFFF" fill="#019899"></path>
            </g>
        </g>
    </g>
</svg>